<?xml version="1.0" encoding="UTF-8"?>
<svg id="Capa_1" data-name="Capa 1" xmlns="http://www.w3.org/2000/svg" viewBox="0 0 2822.45 681.79">
  <defs>
    <style>
      .cls-1, .cls-2 {
        fill: #e80028;
      }

      .cls-2 {
        font-family: BankGothicBold, BankGothic;
        font-size: 237.43px;
      }
    </style>
  </defs>
  <path class="cls-1" d="M942.2,423.19h-328.07V120.85h324.49v53.61h-250.16v65.76h145.81v52.18h-145.81v74.33h253.74v56.46Z"/>
  <path class="cls-1" d="M1391.76,246.65c0,39.08-23.59,58.61-70.76,58.61h-199.41v117.93h-72.9V120.85h272.32c23.34,0,40.49,3.82,51.46,11.44,12.86,9.06,19.3,24.78,19.3,47.17v67.19ZM1323.15,228.78v-31.45c0-16.19-11.2-24.3-33.59-24.3h-167.97v80.05h167.97c22.39,0,33.59-8.1,33.59-24.3Z"/>
  <path class="cls-1" d="M1875.64,423.19h-73.62v-127.22h-230.15v127.22h-74.33V120.85h74.33v115.07h230.15v-115.07h73.62v302.34Z"/>
  <path class="cls-1" d="M2363.09,120.85l-164.39,165.11v137.23h-73.62v-135.8l-165.11-166.54h99.35l107.93,112.93,109.36-112.93h86.48Z"/>
  <path class="cls-1" d="M2814.08,423.19h-100.78l-115.79-112.93-106.5,112.93h-87.2l149.38-155.1-152.24-147.24h98.63l101.5,97.92,95.78-97.92h85.05l-137.94,138.66,170.11,163.68Z"/>
  <g>
    <path class="cls-1" d="M490.88,405.58c-26.37-28.95-50.75-60.02-75.85-90.18-2.73-59.52,15.12-139.42-57.3-163.21-3.35-1.1-19.06-2.97-19.07-5.85C401.52,118.38,449.26,63.5,473.85,0c4.96,3.05,2.28,11.74,1.49,16.62,4.45,104.58-6.49,215.75-.24,320.1.56,9.3,2.51,20.38,4.63,29.49,3.11,13.33,9.9,25.81,11.16,39.36Z"/>
    <path class="cls-1" d="M164.06,168c-6.67-24.48-20.31-48.35-36.77-67.57-2.55-2.98-24.86-22.98-22.28-25.62,30.85,13.01,59.18,31.1,84.02,53.42-2.51,49.54,30.03,84.81,60.99,118.54,54.36,59.22,112.55,115.07,166.77,174.5.98,1.07,1.85,2.49,1.93,3.97,2.36.31,1.19-2.85.97-4.25-1.11-6.98-4.95-17.18-7.2-24.31-8.16-25.91-18.62-50.95-27.91-76.43l9.86,9.16c19.13,21.16,37.58,42.92,56.4,64.35,4.65,5.29,23.74,23.39,24.37,28.13.85,6.36-.23,15.58-.13,22.43.7,50.01-1.2,89.8,23.01,135.83l29.55,45.91-30.6-21.23c-36.67-27.6-70.71-58.77-101.31-92.95l6.99,19.26,13.99,29.33,32.18,55.09c-1.87,1.7-15.72-8.14-18.28-9.92-16.68-11.58-35.02-26.81-49.98-40.58-45.46-41.87-92.37-92.67-135.21-137.8-18.97-19.98-37.59-40.34-55.7-61.12l-.06-3.88,129.29,87.28L112.21,237.58l-1.94.64c5.92,12.85,11.93,27.77,13.1,42.03,1.23,15.05,1.68,48.54.08,63.05-.22,1.99-.12,3.26-2.03,4.5l-66.35-70.12c-4.11-45.3,3.88-91.25-8.44-135.94C38.07,110.74,20.52,83.39,0,59.08c15.92,5.87,32.17,14.77,47.28,22.93,43.55,23.53,82.35,50.19,116.78,86Z"/>
    <path class="cls-1" d="M53.81,382.61c-.84-8.27-5.59-22.74-8.26-31.11-9.34-29.28-24.44-56.83-38.99-83.72,1.21-1.21,11,7.75,12.49,9.12,35.12,32.17,66.89,69.02,101.7,101.78,1.89,1.92,2.35,3.95,2.65,6.53,4.29,36.53-12.24,96.82,23.72,121.97,6.26,4.38,20.72,9.97,28.09,9.97h19.03c.49,2.35-.68,2.6-2.18,3.73-7.76,5.85-20.88,10.73-29.73,16.21-32.19,19.97-57.55,46.09-79.42,76.78-10.17,14.27-18.15,30.04-29.12,43.73v-274.98Z"/>
  </g>
  <text class="cls-2" transform="translate(1481.21 625.76)"><tspan x="0" y="0">NETWORK</tspan></text>
</svg>